<svg width="34" height="42" viewBox="0 0 34 42" fill="none" xmlns="http://www.w3.org/2000/svg">
<path d="M15.4062 0.300049C14.8839 0.41418 14.3759 0.58385 13.8911 0.806044C5.42512 4.68326 0 15.5257 0 24.8148C0 33.6437 6.76388 40.8984 15.4062 41.7001V0.300049ZM18.5938 41.7001C27.2361 40.8984 34 33.6458 34 24.8169C34 23.9715 33.9554 23.1136 33.8661 22.2473L18.5938 37.2148V41.7001ZM30.3025 10.9135C29.4869 9.41573 28.5338 7.9939 27.455 6.6656L18.5938 15.3487V22.3869L30.3025 10.9135ZM25.3045 4.35426C23.7821 2.90124 22.027 1.70261 20.1089 0.806044C19.6241 0.58385 19.1161 0.41418 18.5938 0.300049V10.9322L25.3045 4.35426ZM31.739 13.9203L18.5938 26.8034V32.7962L32.9375 18.7408L33.218 18.4659C32.8438 16.916 32.3494 15.3964 31.739 13.9203Z" fill="black"/>
</svg>
